<svg xmlns="http://www.w3.org/2000/svg" xmlns:xlink="http://www.w3.org/1999/xlink" width="500" zoomAndPan="magnify" viewBox="0 0 375 374.999991" height="500" preserveAspectRatio="xMidYMid meet" version="1.0"><rect x="-37.5" width="450" fill="#ffffff" y="-37.499999" height="449.999989" fill-opacity="1"/><rect x="-37.5" width="450" fill="#ffffff" y="-37.499999" height="449.999989" fill-opacity="1"/><path fill="#737373" d="M 187.5 46.875 C 190.570312 46.875 193.636719 46.976562 196.699219 47.175781 C 199.761719 47.375 202.8125 47.675781 205.855469 48.078125 C 208.898438 48.480469 211.925781 48.976562 214.933594 49.578125 C 217.945312 50.175781 220.933594 50.871094 223.894531 51.667969 C 226.859375 52.460938 229.796875 53.351562 232.703125 54.339844 C 235.609375 55.324219 238.480469 56.40625 241.316406 57.578125 C 244.148438 58.753906 246.945312 60.019531 249.695312 61.378906 C 252.449219 62.734375 255.15625 64.179688 257.8125 65.714844 C 260.46875 67.25 263.074219 68.871094 265.628906 70.574219 C 268.179688 72.28125 270.671875 74.066406 273.105469 75.933594 C 275.542969 77.804688 277.914062 79.75 280.21875 81.773438 C 282.527344 83.796875 284.765625 85.894531 286.9375 88.0625 C 289.105469 90.234375 291.203125 92.472656 293.226562 94.78125 C 295.25 97.085938 297.195312 99.457031 299.066406 101.894531 C 300.933594 104.328125 302.71875 106.820312 304.425781 109.371094 C 306.128906 111.925781 307.75 114.53125 309.285156 117.1875 C 310.820312 119.84375 312.265625 122.550781 313.621094 125.304688 C 314.980469 128.054688 316.246094 130.851562 317.421875 133.683594 C 318.59375 136.519531 319.675781 139.390625 320.660156 142.296875 C 321.648438 145.203125 322.539062 148.140625 323.332031 151.105469 C 324.128906 154.066406 324.824219 157.054688 325.421875 160.066406 C 326.023438 163.074219 326.519531 166.101562 326.921875 169.144531 C 327.324219 172.1875 327.625 175.238281 327.824219 178.300781 C 328.023438 181.363281 328.125 184.429688 328.125 187.5 C 328.125 190.570312 328.023438 193.636719 327.824219 196.699219 C 327.625 199.761719 327.324219 202.8125 326.921875 205.855469 C 326.519531 208.898438 326.023438 211.925781 325.421875 214.933594 C 324.824219 217.945312 324.128906 220.933594 323.332031 223.894531 C 322.539062 226.859375 321.648438 229.796875 320.660156 232.703125 C 319.675781 235.609375 318.59375 238.480469 317.421875 241.316406 C 316.246094 244.148438 314.980469 246.945312 313.621094 249.695312 C 312.265625 252.449219 310.820312 255.15625 309.285156 257.8125 L 248.390625 222.65625 C 249.160156 221.328125 249.882812 219.976562 250.5625 218.597656 C 251.238281 217.222656 251.871094 215.824219 252.460938 214.40625 C 253.046875 212.988281 253.585938 211.554688 254.082031 210.101562 C 254.574219 208.648438 255.019531 207.179688 255.417969 205.699219 C 255.8125 204.214844 256.160156 202.722656 256.460938 201.21875 C 256.761719 199.710938 257.011719 198.199219 257.210938 196.675781 C 257.410156 195.15625 257.5625 193.628906 257.660156 192.097656 C 257.761719 190.566406 257.8125 189.035156 257.8125 187.5 C 257.8125 185.964844 257.761719 184.433594 257.660156 182.902344 C 257.5625 181.371094 257.410156 179.84375 257.210938 178.324219 C 257.011719 176.800781 256.761719 175.289062 256.460938 173.78125 C 256.160156 172.277344 255.8125 170.785156 255.417969 169.300781 C 255.019531 167.820312 254.574219 166.351562 254.082031 164.898438 C 253.585938 163.445312 253.046875 162.011719 252.460938 160.59375 C 251.871094 159.175781 251.238281 157.777344 250.5625 156.402344 C 249.882812 155.023438 249.160156 153.671875 248.390625 152.34375 C 247.625 151.015625 246.816406 149.710938 245.960938 148.4375 C 245.109375 147.160156 244.21875 145.914062 243.28125 144.695312 C 242.347656 143.480469 241.375 142.292969 240.363281 141.140625 C 239.351562 139.984375 238.304688 138.867188 237.21875 137.78125 C 236.132812 136.695312 235.015625 135.648438 233.859375 134.636719 C 232.707031 133.625 231.519531 132.652344 230.304688 131.71875 C 229.085938 130.78125 227.839844 129.890625 226.5625 129.039062 C 225.289062 128.183594 223.984375 127.375 222.65625 126.609375 C 221.328125 125.839844 219.976562 125.117188 218.597656 124.4375 C 217.222656 123.761719 215.824219 123.125 214.40625 122.539062 C 212.988281 121.953125 211.554688 121.414062 210.101562 120.917969 C 208.648438 120.425781 207.179688 119.980469 205.699219 119.582031 C 204.214844 119.1875 202.722656 118.839844 201.21875 118.539062 C 199.710938 118.238281 198.199219 117.988281 196.675781 117.789062 C 195.15625 117.589844 193.628906 117.4375 192.097656 117.339844 C 190.566406 117.238281 189.035156 117.1875 187.5 117.1875 Z M 187.5 46.875 " fill-opacity="1" fill-rule="nonzero"/><path fill="#737373" d="M 309.285156 257.8125 C 307.75 260.46875 306.128906 263.074219 304.425781 265.628906 C 302.71875 268.179688 300.933594 270.671875 299.066406 273.105469 C 297.195312 275.542969 295.25 277.914062 293.226562 280.21875 C 291.203125 282.527344 289.105469 284.765625 286.9375 286.9375 C 284.765625 289.105469 282.527344 291.203125 280.21875 293.226562 C 277.914062 295.25 275.542969 297.195312 273.105469 299.066406 C 270.671875 300.933594 268.179688 302.71875 265.628906 304.425781 C 263.074219 306.128906 260.46875 307.75 257.8125 309.285156 C 255.15625 310.820312 252.449219 312.265625 249.695312 313.621094 C 246.945312 314.980469 244.148438 316.246094 241.316406 317.421875 C 238.480469 318.59375 235.609375 319.675781 232.703125 320.660156 C 229.796875 321.648438 226.859375 322.539062 223.894531 323.332031 C 220.933594 324.128906 217.945312 324.824219 214.933594 325.421875 C 211.925781 326.023438 208.898438 326.519531 205.855469 326.921875 C 202.8125 327.324219 199.761719 327.625 196.699219 327.824219 C 193.636719 328.023438 190.570312 328.125 187.5 328.125 C 184.429688 328.125 181.363281 328.023438 178.300781 327.824219 C 175.238281 327.625 172.1875 327.324219 169.144531 326.921875 C 166.101562 326.519531 163.074219 326.023438 160.066406 325.421875 C 157.054688 324.824219 154.066406 324.128906 151.105469 323.332031 C 148.140625 322.539062 145.203125 321.648438 142.296875 320.660156 C 139.390625 319.675781 136.519531 318.59375 133.683594 317.421875 C 130.851562 316.246094 128.054688 314.980469 125.304688 313.621094 C 122.550781 312.265625 119.84375 310.820312 117.1875 309.285156 C 114.53125 307.75 111.925781 306.128906 109.371094 304.425781 C 106.820312 302.71875 104.328125 300.933594 101.894531 299.066406 C 99.457031 297.195312 97.085938 295.25 94.78125 293.226562 C 92.472656 291.203125 90.234375 289.105469 88.0625 286.9375 C 85.894531 284.765625 83.796875 282.527344 81.773438 280.21875 C 79.75 277.914062 77.804688 275.542969 75.933594 273.105469 C 74.066406 270.671875 72.28125 268.179688 70.574219 265.628906 C 68.871094 263.074219 67.25 260.46875 65.714844 257.8125 L 126.609375 222.65625 C 127.375 223.984375 128.183594 225.289062 129.039062 226.5625 C 129.890625 227.839844 130.78125 229.085938 131.71875 230.304688 C 132.652344 231.519531 133.625 232.707031 134.636719 233.859375 C 135.648438 235.015625 136.695312 236.132812 137.78125 237.21875 C 138.867188 238.304688 139.984375 239.351562 141.140625 240.363281 C 142.292969 241.375 143.480469 242.347656 144.695312 243.28125 C 145.914062 244.21875 147.160156 245.109375 148.4375 245.960938 C 149.710938 246.816406 151.015625 247.625 152.34375 248.390625 C 153.671875 249.160156 155.023438 249.882812 156.402344 250.5625 C 157.777344 251.238281 159.175781 251.871094 160.59375 252.460938 C 162.011719 253.046875 163.445312 253.585938 164.898438 254.082031 C 166.351562 254.574219 167.820312 255.019531 169.300781 255.417969 C 170.785156 255.8125 172.277344 256.160156 173.78125 256.460938 C 175.289062 256.761719 176.800781 257.011719 178.324219 257.210938 C 179.84375 257.410156 181.371094 257.5625 182.902344 257.660156 C 184.433594 257.761719 185.964844 257.8125 187.5 257.8125 C 189.035156 257.8125 190.566406 257.761719 192.097656 257.660156 C 193.628906 257.5625 195.15625 257.410156 196.675781 257.210938 C 198.199219 257.011719 199.710938 256.761719 201.21875 256.460938 C 202.722656 256.160156 204.214844 255.8125 205.699219 255.417969 C 207.179688 255.019531 208.648438 254.574219 210.101562 254.082031 C 211.554688 253.585938 212.988281 253.046875 214.40625 252.460938 C 215.824219 251.871094 217.222656 251.238281 218.597656 250.5625 C 219.976562 249.882812 221.328125 249.160156 222.65625 248.390625 C 223.984375 247.625 225.289062 246.816406 226.5625 245.960938 C 227.839844 245.109375 229.085938 244.21875 230.304688 243.28125 C 231.519531 242.347656 232.707031 241.375 233.859375 240.363281 C 235.015625 239.351562 236.132812 238.304688 237.21875 237.21875 C 238.304688 236.132812 239.351562 235.015625 240.363281 233.859375 C 241.375 232.707031 242.347656 231.519531 243.28125 230.304688 C 244.21875 229.085938 245.109375 227.839844 245.960938 226.5625 C 246.816406 225.289062 247.625 223.984375 248.390625 222.65625 Z M 309.285156 257.8125 " fill-opacity="1" fill-rule="nonzero"/><path fill="#737373" d="M 65.714844 257.8125 C 64.179688 255.15625 62.734375 252.449219 61.378906 249.695312 C 60.019531 246.945312 58.753906 244.152344 57.578125 241.316406 C 56.40625 238.480469 55.324219 235.609375 54.339844 232.703125 C 53.351562 229.796875 52.460938 226.863281 51.667969 223.898438 C 50.871094 220.933594 50.175781 217.945312 49.578125 214.9375 C 48.980469 211.925781 48.480469 208.902344 48.078125 205.859375 C 47.679688 202.816406 47.378906 199.761719 47.175781 196.699219 C 46.976562 193.636719 46.875 190.574219 46.875 187.503906 C 46.875 184.433594 46.976562 181.367188 47.175781 178.304688 C 47.375 175.246094 47.675781 172.191406 48.078125 169.148438 C 48.476562 166.105469 48.976562 163.082031 49.574219 160.070312 C 50.175781 157.058594 50.871094 154.074219 51.664062 151.109375 C 52.460938 148.144531 53.351562 145.210938 54.335938 142.304688 C 55.324219 139.398438 56.402344 136.527344 57.578125 133.691406 C 58.75 130.855469 60.015625 128.0625 61.375 125.308594 C 62.730469 122.554688 64.175781 119.851562 65.710938 117.195312 C 67.246094 114.535156 68.867188 111.929688 70.570312 109.378906 C 72.273438 106.828125 74.0625 104.335938 75.929688 101.898438 C 77.796875 99.464844 79.742188 97.09375 81.765625 94.785156 C 83.789062 92.476562 85.886719 90.238281 88.058594 88.070312 C 90.226562 85.898438 92.464844 83.800781 94.773438 81.777344 C 97.078125 79.753906 99.449219 77.808594 101.886719 75.941406 C 104.320312 74.070312 106.8125 72.285156 109.363281 70.582031 C 111.917969 68.875 114.519531 67.253906 117.179688 65.71875 C 119.835938 64.1875 122.539062 62.738281 125.292969 61.382812 C 128.046875 60.023438 130.839844 58.757812 133.675781 57.582031 C 136.511719 56.410156 139.378906 55.328125 142.285156 54.339844 C 145.191406 53.355469 148.128906 52.464844 151.089844 51.667969 C 154.054688 50.875 157.042969 50.179688 160.054688 49.578125 C 163.0625 48.980469 166.089844 48.480469 169.132812 48.078125 C 172.175781 47.679688 175.226562 47.378906 178.289062 47.175781 C 181.351562 46.976562 184.417969 46.875 187.484375 46.875 L 187.492188 117.1875 C 185.957031 117.1875 184.425781 117.238281 182.894531 117.339844 C 181.363281 117.4375 179.835938 117.589844 178.316406 117.789062 C 176.792969 117.992188 175.28125 118.242188 173.777344 118.539062 C 172.273438 118.839844 170.777344 119.1875 169.296875 119.585938 C 167.8125 119.980469 166.347656 120.425781 164.894531 120.921875 C 163.441406 121.414062 162.003906 121.953125 160.585938 122.542969 C 159.167969 123.128906 157.773438 123.761719 156.398438 124.441406 C 155.019531 125.121094 153.667969 125.84375 152.339844 126.609375 C 151.011719 127.378906 149.707031 128.1875 148.433594 129.039062 C 147.15625 129.894531 145.910156 130.785156 144.691406 131.71875 C 143.476562 132.65625 142.289062 133.628906 141.136719 134.640625 C 139.984375 135.652344 138.863281 136.699219 137.777344 137.785156 C 136.695312 138.871094 135.644531 139.988281 134.632812 141.144531 C 133.621094 142.296875 132.648438 143.480469 131.714844 144.699219 C 130.78125 145.917969 129.886719 147.164062 129.035156 148.441406 C 128.183594 149.714844 127.371094 151.019531 126.605469 152.347656 C 125.839844 153.675781 125.117188 155.027344 124.4375 156.40625 C 123.757812 157.78125 123.125 159.175781 122.539062 160.59375 C 121.953125 162.011719 121.410156 163.449219 120.917969 164.902344 C 120.425781 166.355469 119.980469 167.820312 119.582031 169.304688 C 119.1875 170.785156 118.835938 172.28125 118.539062 173.785156 C 118.238281 175.289062 117.988281 176.804688 117.789062 178.324219 C 117.589844 179.847656 117.4375 181.371094 117.339844 182.902344 C 117.238281 184.433594 117.1875 185.96875 117.1875 187.5 C 117.1875 189.035156 117.238281 190.570312 117.339844 192.101562 C 117.4375 193.632812 117.589844 195.15625 117.789062 196.679688 C 117.988281 198.199219 118.238281 199.714844 118.539062 201.21875 C 118.839844 202.722656 119.1875 204.21875 119.582031 205.699219 C 119.980469 207.179688 120.425781 208.648438 120.917969 210.101562 C 121.414062 211.554688 121.953125 212.988281 122.539062 214.40625 C 123.128906 215.824219 123.761719 217.222656 124.4375 218.597656 C 125.117188 219.976562 125.839844 221.328125 126.609375 222.65625 Z M 65.714844 257.8125 " fill-opacity="1" fill-rule="nonzero"/></svg>